
<svg xmlns="http://www.w3.org/2000/svg" viewBox="0 0 100 100" width="50" height="50">
  <rect width="100" height="100" rx="20" fill="#0A192F" />
  <path d="M35.5,72c-0.83,0-1.57-0.17-2.2-0.5c-0.63-0.33-1.13-0.8-1.5-1.4c-0.37-0.6-0.55-1.3-0.55-2.1 c0-0.57,0.12-1.07,0.35-1.5s0.52-0.78,0.85-1.05c0.33-0.27,0.65-0.45,0.95-0.55v-0.1c-0.5-0.2-0.92-0.55-1.25-1.05 s-0.5-1.07-0.5-1.7c0-0.67,0.15-1.25,0.45-1.75s0.73-0.88,1.3-1.15c0.57-0.27,1.23-0.4,2-0.4c0.83,0,1.53,0.13,2.1,0.4 s1.01,0.63,1.3,1.1s0.44,1,0.45,1.6c0,0.67-0.17,1.25-0.5,1.75s-0.77,0.85-1.3,1.05v0.1c0.33,0.1,0.67,0.28,1,0.55 s0.61,0.62,0.85,1.05s0.35,0.95,0.35,1.55c0,0.83-0.18,1.55-0.55,2.15c-0.37,0.6-0.88,1.07-1.55,1.4S36.4,72,35.5,72z M35.5,69.7 c0.57,0,1.03-0.17,1.4-0.5c0.37-0.33,0.55-0.8,0.55-1.4c0-0.37-0.08-0.68-0.23-0.95s-0.37-0.47-0.65-0.62s-0.63-0.23-1.05-0.23 c-0.4,0-0.75,0.07-1.02,0.2c-0.28,0.13-0.5,0.33-0.65,0.6s-0.22,0.57-0.23,0.9c0,0.6,0.17,1.08,0.5,1.45S34.9,69.7,35.5,69.7z M35.4,64c0.47,0,0.85-0.13,1.15-0.4s0.45-0.67,0.45-1.2c0-0.5-0.15-0.9-0.45-1.2s-0.7-0.45-1.2-0.45c-0.3,0-0.58,0.07-0.82,0.2 s-0.45,0.32-0.6,0.57s-0.22,0.52-0.22,0.82c0,0.53,0.15,0.95,0.45,1.25S34.9,64,35.4,64z" fill="white"/>
  <path d="M46.89,71.8l-5.59-13.1h3l4,9.95h0.15l4-9.95h3l-5.59,13.1H46.89z" fill="#64FFDA"/>
  <path d="M57.91,71.8V58.7h2.9v5.2h0.2l5.3-5.2h3.8l-6,5.85l6.25,7.25h-3.8l-4.75-5.5l-0.95,0.9v4.6H57.91z" fill="white"/>
  <path d="M78.1,72c-1.18,0-2.23-0.25-3.15-0.75c-0.92-0.5-1.64-1.2-2.15-2.1s-0.77-1.95-0.77-3.15 c0-1.2,0.26-2.25,0.77-3.15c0.52-0.9,1.24-1.6,2.16-2.1c0.92-0.5,1.97-0.75,3.15-0.75c1.07,0,2,0.18,2.8,0.55s1.45,0.9,1.95,1.6 s0.81,1.5,0.91,2.4h-2.8c-0.13-0.7-0.44-1.25-0.92-1.65s-1.09-0.6-1.85-0.6c-0.6,0-1.13,0.15-1.6,0.45s-0.83,0.72-1.1,1.28 c-0.27,0.55-0.4,1.2-0.4,1.95s0.13,1.4,0.4,1.95c0.27,0.55,0.64,0.98,1.1,1.28c0.47,0.3,1,0.45,1.6,0.45 c0.43,0,0.84-0.08,1.2-0.25c0.37-0.17,0.68-0.41,0.93-0.73c0.25-0.32,0.43-0.7,0.55-1.15h2.8c-0.1,0.87-0.37,1.65-0.8,2.35 c-0.43,0.7-1,1.25-1.7,1.65S79.2,72,78.1,72z" fill="white"/>
</svg>
