
<svg xmlns="http://www.w3.org/2000/svg" viewBox="0 0 24 24" width="50" height="50">
  <rect width="100%" height="100%" fill="#FFFFFF" rx="5" />
  <path d="M12,2C6.48,2,2,6.48,2,12s4.48,10,10,10s10-4.48,10-10S17.52,2,12,2z" fill="#0A192F" />
  <g transform="scale(0.4) translate(18, 18)">
    <path d="M12,8c-2.21,0-4,1.79-4,4s1.79,4,4,4s4-1.79,4-4S14.21,8,12,8z M20.94,11c-0.46-4.17-3.77-7.48-7.94-7.94V1h-2v2.06 C6.83,3.52,3.52,6.83,3.06,11H1v2h2.06c0.46,4.17,3.77,7.48,7.94,7.94V23h2v-2.06c4.17-0.46,7.48-3.77,7.94-7.94H23v-2H20.94z M12,19c-3.87,0-7-3.13-7-7s3.13-7,7-7s7,3.13,7,7S15.87,19,12,19z" fill="#0A192F" />
  </g>
</svg>
